<svg width="176.389" height="179.636" viewBox="0 0 46.67 47.529" xmlns="http://www.w3.org/2000/svg"><path d="M0 0c0-22.843-18.518-41.362-41.361-41.362-22.844 0-41.362 18.519-41.362 41.362 0 22.843 18.518 41.361 41.362 41.361C-18.518 41.361 0 22.843 0 0" style="fill:#fef7e3;fill-opacity:1;fill-rule:nonzero;stroke:none" transform="matrix(.35278 0 0 -.35278 37.926 16.02)"/><g style="stroke:none"><path d="M0 0c-22.807 0-41.362-18.555-41.362-41.362 0-22.806 18.555-41.361 41.362-41.361 22.807 0 41.362 18.555 41.362 41.361C41.362-18.555 22.807 0 0 0m0-86.771c-25.039 0-45.409 20.371-45.409 45.409 0 25.039 20.37 45.41 45.409 45.41 25.039 0 45.409-20.371 45.409-45.41C45.409-66.4 25.039-86.771 0-86.771" style="fill:#45acb8;fill-opacity:1;fill-rule:nonzero;stroke:none" transform="matrix(.35278 0 0 -.35278 23.335 1.428)"/></g><path d="M0 0c0-20.421-16.555-36.976-36.976-36.976S-73.952-20.421-73.952 0s16.555 36.976 36.976 36.976S0 20.421 0 0" style="fill:#fef7e3;fill-opacity:1;fill-rule:nonzero;stroke:none" transform="matrix(.35278 0 0 -.35278 36.379 16.082)"/><path d="M0 0c-8.433 0-19.395 5.734-27.827 5.734-3.415 0-7.825-2.102-12.144-4.625 6.263-11.522 18.472-19.344 32.509-19.344 16.552 0 30.561 10.877 35.277 25.872-1.709.794-3.383 1.301-4.879 1.301C15.769 8.938 8.433 0 0 0" style="fill:#9fd620;fill-opacity:1;fill-rule:nonzero;stroke:none" transform="matrix(.35278 0 0 -.35278 25.967 22.631)"/><path d="M0 0c7.589 5.325 16.19 6.505 25.129-.747 2.628-2.132 6.015-3.315 9.585-3.872 1.517-.237 2.534 1.506 1.567 2.7-6.778 8.364-17.128 13.715-28.733 13.715-9.965 0-19.003-3.947-25.651-10.357-1.747-1.686-.835-4.68 1.57-5.01C-11.127-4.315-4.625-3.245 0 0" style="fill:#45acb8;fill-opacity:1;fill-rule:nonzero;stroke:none" transform="matrix(.35278 0 0 -.35278 20.672 7.137)"/><path d="M0 0c-.003 2.155-2.159 3.587-4.203 2.904-.699-.233-1.383-.364-2.037-.364-9.782 0-9.95 6.325-17.118 6.325-7.083 0-10.541-13.661-21.503-13.661S-61.726 6.419-69.568 6.419c-.402 0-.829-.06-1.278-.176-1.69-.435-2.884-1.951-3.011-3.692a36.816 36.816 0 0 1 4.372-20.236c4.32 2.523 8.729 4.625 12.144 4.625 8.432 0 19.395-5.734 27.827-5.734 8.433 0 15.769 8.938 22.937 8.938 1.495 0 3.169-.507 4.878-1.302A36.975 36.975 0 0 1 0-.053V0" style="fill:#233344;fill-opacity:1;fill-rule:nonzero;stroke:none" transform="matrix(.35278 0 0 -.35278 36.379 16)"/><path d="M0 0c.693.575 1.04 1.391 1.04 2.449C1.04 3.525.693 4.351 0 4.925c-.693.575-1.706.862-3.037.862h-3.612V-.862h3.612C-1.706-.862-.693-.575 0 0m1.628 8.551c1.25-.566 2.212-1.369 2.887-2.408.674-1.04 1.012-2.271 1.012-3.694 0-1.405-.338-2.632-1.012-3.68-.675-1.05-1.637-1.852-2.887-2.408-1.25-.557-2.722-.835-4.419-.835h-3.858v-5.28h-4.432V9.399h8.29c1.697 0 3.169-.283 4.419-.848" style="fill:#45acb8;fill-opacity:1;fill-rule:nonzero;stroke:none" transform="matrix(.35278 0 0 -.35278 3.91 42.138)"/><path d="m0 0-6.649-15.623c-.675-1.697-1.509-2.891-2.504-3.585-.994-.693-2.193-1.039-3.598-1.039a7.47 7.47 0 0 0-2.27.355c-.749.238-1.36.566-1.834.985l1.56 3.037a3.687 3.687 0 0 1 1.135-.684 3.545 3.545 0 0 1 1.273-.246c.583 0 1.057.141 1.423.424.364.283.692.753.984 1.409l.055.137L-16.8 0h4.405l4.132-9.987L-4.104 0Z" style="fill:#45acb8;fill-opacity:1;fill-rule:nonzero;stroke:none" transform="matrix(.35278 0 0 -.35278 12.317 40.386)"/><path d="M0 0c-1.414.411-2.55.944-3.406 1.601l1.504 3.338c.821-.602 1.797-1.086 2.928-1.45a10.964 10.964 0 0 1 3.393-.548c1.259 0 2.189.187 2.791.561.602.374.903.871.903 1.492 0 .455-.178.834-.534 1.135-.355.301-.812.543-1.368.725-.557.182-1.309.383-2.257.602-1.46.346-2.655.693-3.584 1.04a5.819 5.819 0 0 0-2.395 1.669c-.666.766-.998 1.787-.998 3.064 0 1.113.301 2.121.902 3.024.603.903 1.51 1.618 2.723 2.148 1.213.529 2.695.793 4.446.793 1.222 0 2.417-.146 3.585-.438 1.167-.292 2.189-.711 3.064-1.258l-1.368-3.366c-1.769 1.003-3.539 1.505-5.308 1.505-1.241 0-2.157-.201-2.75-.602-.593-.401-.889-.93-.889-1.587 0-.656.342-1.145 1.026-1.464.684-.319 1.728-.634 3.133-.944 1.459-.346 2.654-.693 3.584-1.039a5.942 5.942 0 0 0 2.394-1.642c.666-.748.999-1.761.999-3.037a5.222 5.222 0 0 0-.917-2.996C10.99 1.423 10.074.707 8.852.178c-1.223-.529-2.709-.794-4.46-.794C2.877-.616 1.414-.41 0 0" style="fill:#45acb8;fill-opacity:1;fill-rule:nonzero;stroke:none" transform="matrix(.35278 0 0 -.35278 13.914 45.478)"/><path d="m0 0-3.037 7.333L-6.074 0Zm1.395-3.366h-8.892l-1.697-4.103h-4.541l8.536 19.152h4.378L7.743-7.469H3.092Z" style="fill:#45acb8;fill-opacity:1;fill-rule:nonzero;stroke:none" transform="matrix(.35278 0 0 -.35278 23.6 42.944)"/><path d="M0 0h4.05v-7.771C3.01-8.555 1.806-9.157.438-9.576a14.012 14.012 0 0 0-4.132-.63c-1.989 0-3.776.425-5.363 1.273-1.587.848-2.832 2.024-3.735 3.529s-1.354 3.206-1.354 5.103c0 1.897.451 3.598 1.354 5.103s2.157 2.682 3.762 3.53c1.606.848 3.411 1.272 5.418 1.272 1.678 0 3.201-.283 4.57-.848 1.368-.566 2.517-1.387 3.447-2.463L1.559 3.667C.191 5.107-1.46 5.828-3.393 5.828c-1.222 0-2.308-.256-3.256-.766A5.49 5.49 0 0 1-8.865 2.9c-.53-.93-.794-1.997-.794-3.201 0-1.186.264-2.244.794-3.174A5.616 5.616 0 0 1-6.663-5.65c.939-.52 2.012-.78 3.215-.78 1.277 0 2.426.274 3.448.821z" style="fill:#45acb8;fill-opacity:1;fill-rule:nonzero;stroke:none" transform="matrix(.35278 0 0 -.35278 31.747 42.095)"/><path d="M0 0v-3.557h-14.83v19.153H-.356v-3.557h-10.069V7.88h8.893V4.433h-8.893V0Z" style="fill:#45acb8;fill-opacity:1;fill-rule:nonzero;stroke:none" transform="matrix(.35278 0 0 -.35278 40.096 44.324)"/><path d="M0 0c-1.414.411-2.55.944-3.406 1.601l1.504 3.338c.821-.602 1.797-1.086 2.928-1.45a10.964 10.964 0 0 1 3.393-.548c1.259 0 2.189.187 2.791.561.602.374.903.871.903 1.492 0 .455-.178.834-.534 1.135-.355.301-.812.543-1.368.725-.557.182-1.309.383-2.257.602-1.46.346-2.655.693-3.584 1.04a5.819 5.819 0 0 0-2.395 1.669c-.666.766-.998 1.787-.998 3.064 0 1.113.301 2.121.902 3.024.603.903 1.51 1.618 2.723 2.148 1.213.529 2.695.793 4.446.793 1.222 0 2.417-.146 3.585-.438 1.167-.292 2.189-.711 3.064-1.258l-1.368-3.366c-1.769 1.003-3.539 1.505-5.308 1.505-1.241 0-2.157-.201-2.75-.602-.593-.401-.889-.93-.889-1.587 0-.656.342-1.145 1.026-1.464.684-.319 1.728-.634 3.133-.944 1.459-.346 2.654-.693 3.584-1.039a5.942 5.942 0 0 0 2.394-1.642c.666-.748.999-1.761.999-3.037a5.222 5.222 0 0 0-.917-2.996C10.99 1.423 10.074.707 8.852.178c-1.223-.529-2.709-.794-4.46-.794C2.877-.616 1.414-.41 0 0" style="fill:#45acb8;fill-opacity:1;fill-rule:nonzero;stroke:none" transform="matrix(.35278 0 0 -.35278 42.254 45.478)"/></svg>