<?xml version="1.0" encoding="UTF-8" standalone="no"?>
<!-- Created with Inkscape (http://www.inkscape.org/) -->

<svg
   width="46.669605mm"
   height="47.52869mm"
   viewBox="0 0 46.669605 47.52869"
   version="1.1"
   id="svg3521"
   inkscape:version="1.1.2 (0a00cf5339, 2022-02-04)"
   sodipodi:docname="pysages-bottom.svg"
   xmlns:inkscape="http://www.inkscape.org/namespaces/inkscape"
   xmlns:sodipodi="http://sodipodi.sourceforge.net/DTD/sodipodi-0.dtd"
   xmlns="http://www.w3.org/2000/svg"
   xmlns:svg="http://www.w3.org/2000/svg">
  <sodipodi:namedview
     id="namedview3523"
     pagecolor="#ffffff"
     bordercolor="#999999"
     borderopacity="1"
     inkscape:pageshadow="0"
     inkscape:pageopacity="0"
     inkscape:pagecheckerboard="0"
     inkscape:document-units="mm"
     showgrid="false"
     fit-margin-top="0"
     fit-margin-left="0"
     fit-margin-right="0"
     fit-margin-bottom="0"
     inkscape:zoom="4.375515"
     inkscape:cx="88.218186"
     inkscape:cy="89.817998"
     inkscape:window-width="1920"
     inkscape:window-height="1011"
     inkscape:window-x="0"
     inkscape:window-y="32"
     inkscape:window-maximized="1"
     inkscape:current-layer="layer1" />
  <defs
     id="defs3518" />
  <g
     inkscape:label="Layer 1"
     inkscape:groupmode="layer"
     id="layer1"
     transform="translate(-47.227613,-123.34035)">
    <g
       id="g2576"
       transform="matrix(0.35277777,0,0,-0.35277777,-90.916987,403.5668)">
      <g
         id="g2514">
        <g
           id="g42"
           transform="translate(499.0983,748.9332)">
          <path
             d="m 0,0 c 0,-22.843 -18.518,-41.362 -41.361,-41.362 -22.844,0 -41.362,18.519 -41.362,41.362 0,22.843 18.518,41.361 41.362,41.361 C -18.518,41.361 0,22.843 0,0"
             style="fill:#fef7e3;fill-opacity:1;fill-rule:nonzero;stroke:none"
             id="path44" />
        </g>
        <g
           id="g46"
           transform="translate(457.7367,790.2947)"
           style="stroke:none">
          <path
             d="m 0,0 c -22.807,0 -41.362,-18.555 -41.362,-41.362 0,-22.806 18.555,-41.361 41.362,-41.361 22.807,0 41.362,18.555 41.362,41.361 C 41.362,-18.555 22.807,0 0,0 m 0,-86.771 c -25.039,0 -45.409,20.371 -45.409,45.409 0,25.039 20.37,45.41 45.409,45.41 25.039,0 45.409,-20.371 45.409,-45.41 C 45.409,-66.4 25.039,-86.771 0,-86.771"
             style="fill:#45acb8;fill-opacity:1;fill-rule:nonzero;stroke:none"
             id="path48" />
        </g>
        <g
           id="g50"
           transform="translate(494.7127,748.7554)">
          <path
             d="m 0,0 c 0,-20.421 -16.555,-36.976 -36.976,-36.976 -20.421,0 -36.976,16.555 -36.976,36.976 0,20.421 16.555,36.976 36.976,36.976 C -16.555,36.976 0,20.421 0,0"
             style="fill:#fef7e3;fill-opacity:1;fill-rule:nonzero;stroke:none"
             id="path52" />
        </g>
        <g
           id="g54"
           transform="translate(465.1988,730.1918)">
          <path
             d="m 0,0 c -8.433,0 -19.395,5.734 -27.827,5.734 -3.415,0 -7.825,-2.102 -12.144,-4.625 6.263,-11.522 18.472,-19.344 32.509,-19.344 16.552,0 30.561,10.877 35.277,25.872 C 26.106,8.431 24.432,8.938 22.936,8.938 15.769,8.938 8.433,0 0,0"
             style="fill:#9fd620;fill-opacity:1;fill-rule:nonzero;stroke:none"
             id="path56" />
        </g>
        <g
           id="g58"
           transform="translate(450.1889,774.1132)">
          <path
             d="m 0,0 c 7.589,5.325 16.19,6.505 25.129,-0.747 2.628,-2.132 6.015,-3.315 9.585,-3.872 1.517,-0.237 2.534,1.506 1.567,2.7 -6.778,8.364 -17.128,13.715 -28.733,13.715 -9.965,0 -19.003,-3.947 -25.651,-10.357 -1.747,-1.686 -0.835,-4.68 1.57,-5.01 C -11.127,-4.315 -4.625,-3.245 0,0"
             style="fill:#45acb8;fill-opacity:1;fill-rule:nonzero;stroke:none"
             id="path60" />
        </g>
        <g
           id="g62"
           transform="translate(494.7127,748.986)">
          <path
             d="M 0,0 C -0.003,2.155 -2.159,3.587 -4.203,2.904 -4.902,2.671 -5.586,2.54 -6.24,2.54 c -9.782,0 -9.95,6.325 -17.118,6.325 -7.083,0 -10.541,-13.661 -21.503,-13.661 -10.962,0 -16.865,11.215 -24.707,11.215 -0.402,0 -0.829,-0.06 -1.278,-0.176 -1.69,-0.435 -2.884,-1.951 -3.011,-3.692 -0.062,-0.86 -0.095,-1.728 -0.095,-2.604 0,-6.385 1.619,-12.391 4.467,-17.632 4.32,2.523 8.729,4.625 12.144,4.625 8.432,0 19.395,-5.734 27.827,-5.734 8.433,0 15.769,8.938 22.937,8.938 1.495,0 3.169,-0.507 4.878,-1.302 C -0.597,-7.652 0,-3.922 0,-0.053 0,-0.035 0,-0.018 0,0"
             style="fill:#233344;fill-opacity:1;fill-rule:nonzero;stroke:none"
             id="path64" />
        </g>
      </g>
      <g
         id="g2546">
        <g
           id="g114"
           transform="translate(402.672,674.8965)">
          <path
             d="M 0,0 C 0.693,0.575 1.04,1.391 1.04,2.449 1.04,3.525 0.693,4.351 0,4.925 -0.693,5.5 -1.706,5.787 -3.037,5.787 h -3.612 v -6.649 h 3.612 C -1.706,-0.862 -0.693,-0.575 0,0 M 1.628,8.551 C 2.878,7.985 3.84,7.182 4.515,6.143 5.189,5.103 5.527,3.872 5.527,2.449 5.527,1.044 5.189,-0.183 4.515,-1.231 3.84,-2.281 2.878,-3.083 1.628,-3.639 0.378,-4.196 -1.094,-4.474 -2.791,-4.474 h -3.858 v -5.28 h -4.432 V 9.399 h 8.29 c 1.697,0 3.169,-0.283 4.419,-0.848"
             style="fill:#45acb8;fill-opacity:1;fill-rule:nonzero;stroke:none"
             id="path116" />
        </g>
        <g
           id="g118"
           transform="translate(426.5041,679.8627)">
          <path
             d="m 0,0 -6.649,-15.623 c -0.675,-1.697 -1.509,-2.891 -2.504,-3.585 -0.994,-0.693 -2.193,-1.039 -3.598,-1.039 -0.765,0 -1.523,0.118 -2.27,0.355 -0.749,0.238 -1.36,0.566 -1.834,0.985 l 1.56,3.037 c 0.328,-0.291 0.706,-0.519 1.135,-0.684 0.429,-0.164 0.853,-0.246 1.273,-0.246 0.583,0 1.057,0.141 1.423,0.424 0.364,0.283 0.692,0.753 0.984,1.409 l 0.055,0.137 L -16.8,0 h 4.405 L -8.263,-9.987 -4.104,0 Z"
             style="fill:#45acb8;fill-opacity:1;fill-rule:nonzero;stroke:none"
             id="path120" />
        </g>
        <g
           id="g122"
           transform="translate(431.032,665.4294)">
          <path
             d="m 0,0 c -1.414,0.411 -2.55,0.944 -3.406,1.601 l 1.504,3.338 C -1.081,4.337 -0.105,3.853 1.026,3.489 2.157,3.123 3.288,2.941 4.419,2.941 c 1.259,0 2.189,0.187 2.791,0.561 0.602,0.374 0.903,0.871 0.903,1.492 0,0.455 -0.178,0.834 -0.534,1.135 C 7.224,6.43 6.767,6.672 6.211,6.854 5.654,7.036 4.902,7.237 3.954,7.456 2.494,7.802 1.299,8.149 0.37,8.496 c -0.931,0.346 -1.729,0.903 -2.395,1.669 -0.666,0.766 -0.998,1.787 -0.998,3.064 0,1.113 0.301,2.121 0.902,3.024 0.603,0.903 1.51,1.618 2.723,2.148 1.213,0.529 2.695,0.793 4.446,0.793 1.222,0 2.417,-0.146 3.585,-0.438 1.167,-0.292 2.189,-0.711 3.064,-1.258 L 10.329,14.132 C 8.56,15.135 6.79,15.637 5.021,15.637 3.78,15.637 2.864,15.436 2.271,15.035 1.678,14.634 1.382,14.105 1.382,13.448 1.382,12.792 1.724,12.303 2.408,11.984 3.092,11.665 4.136,11.35 5.541,11.04 7,10.694 8.195,10.347 9.125,10.001 10.055,9.654 10.853,9.107 11.519,8.359 12.185,7.611 12.518,6.598 12.518,5.322 12.518,4.227 12.213,3.229 11.601,2.326 10.99,1.423 10.074,0.707 8.852,0.178 7.629,-0.351 6.143,-0.616 4.392,-0.616 2.877,-0.616 1.414,-0.41 0,0"
             style="fill:#45acb8;fill-opacity:1;fill-rule:nonzero;stroke:none"
             id="path124" />
        </g>
        <g
           id="g126"
           transform="translate(458.4893,672.6119)">
          <path
             d="M 0,0 -3.037,7.333 -6.074,0 Z m 1.395,-3.366 h -8.892 l -1.697,-4.103 h -4.541 l 8.536,19.152 h 4.378 L 7.743,-7.469 H 3.092 Z"
             style="fill:#45acb8;fill-opacity:1;fill-rule:nonzero;stroke:none"
             id="path128" />
        </g>
        <g
           id="g130"
           transform="translate(481.5823,675.0196)">
          <path
             d="M 0,0 H 4.05 V -7.771 C 3.01,-8.555 1.806,-9.157 0.438,-9.576 c -1.368,-0.42 -2.746,-0.63 -4.132,-0.63 -1.989,0 -3.776,0.425 -5.363,1.273 -1.587,0.848 -2.832,2.024 -3.735,3.529 -0.903,1.505 -1.354,3.206 -1.354,5.103 0,1.897 0.451,3.598 1.354,5.103 0.903,1.505 2.157,2.682 3.762,3.53 1.606,0.848 3.411,1.272 5.418,1.272 1.678,0 3.201,-0.283 4.57,-0.848 C 2.326,8.19 3.475,7.369 4.405,6.293 L 1.559,3.667 C 0.191,5.107 -1.46,5.828 -3.393,5.828 -4.615,5.828 -5.701,5.572 -6.649,5.062 -7.598,4.551 -8.336,3.831 -8.865,2.9 -9.395,1.97 -9.659,0.903 -9.659,-0.301 c 0,-1.186 0.264,-2.244 0.794,-3.174 0.529,-0.93 1.263,-1.655 2.202,-2.175 0.939,-0.52 2.012,-0.78 3.215,-0.78 1.277,0 2.426,0.274 3.448,0.821 z"
             style="fill:#45acb8;fill-opacity:1;fill-rule:nonzero;stroke:none"
             id="path132" />
        </g>
        <g
           id="g134"
           transform="translate(505.2499,668.6991)">
          <path
             d="M 0,0 V -3.557 H -14.83 V 15.596 H -0.356 V 12.039 H -10.425 V 7.88 h 8.893 V 4.433 h -8.893 V 0 Z"
             style="fill:#45acb8;fill-opacity:1;fill-rule:nonzero;stroke:none"
             id="path136" />
        </g>
        <g
           id="g138"
           transform="translate(511.3648,665.4294)">
          <path
             d="m 0,0 c -1.414,0.411 -2.55,0.944 -3.406,1.601 l 1.504,3.338 C -1.081,4.337 -0.105,3.853 1.026,3.489 2.157,3.123 3.288,2.941 4.419,2.941 c 1.259,0 2.189,0.187 2.791,0.561 0.602,0.374 0.903,0.871 0.903,1.492 0,0.455 -0.178,0.834 -0.534,1.135 C 7.224,6.43 6.767,6.672 6.211,6.854 5.654,7.036 4.902,7.237 3.954,7.456 2.494,7.802 1.299,8.149 0.37,8.496 c -0.931,0.346 -1.729,0.903 -2.395,1.669 -0.666,0.766 -0.998,1.787 -0.998,3.064 0,1.113 0.301,2.121 0.902,3.024 0.603,0.903 1.51,1.618 2.723,2.148 1.213,0.529 2.695,0.793 4.446,0.793 1.222,0 2.417,-0.146 3.585,-0.438 1.167,-0.292 2.189,-0.711 3.064,-1.258 L 10.329,14.132 C 8.56,15.135 6.79,15.637 5.021,15.637 3.78,15.637 2.864,15.436 2.271,15.035 1.678,14.634 1.382,14.105 1.382,13.448 1.382,12.792 1.724,12.303 2.408,11.984 3.092,11.665 4.136,11.35 5.541,11.04 7,10.694 8.195,10.347 9.125,10.001 10.055,9.654 10.853,9.107 11.519,8.359 12.185,7.611 12.518,6.598 12.518,5.322 12.518,4.227 12.213,3.229 11.601,2.326 10.99,1.423 10.074,0.707 8.852,0.178 7.629,-0.351 6.143,-0.616 4.392,-0.616 2.877,-0.616 1.414,-0.41 0,0"
             style="fill:#45acb8;fill-opacity:1;fill-rule:nonzero;stroke:none"
             id="path140" />
        </g>
      </g>
    </g>
  </g>
</svg>
