<svg xmlns="http://www.w3.org/2000/svg" width="121.091" height="121.092" viewBox="0 0 32.039 32.039"><path d="M0 0c0-22.843-18.518-41.362-41.361-41.362-22.844 0-41.362 18.519-41.362 41.362 0 22.843 18.518 41.361 41.362 41.361C-18.518 41.361 0 22.843 0 0" style="fill:#fef7e3;fill-opacity:1;fill-rule:nonzero;stroke:none" transform="matrix(.35278 0 0 -.35278 30.61 16.02)"/><path d="M0 0c-22.807 0-41.362-18.555-41.362-41.362 0-22.807 18.555-41.361 41.362-41.361 22.807 0 41.362 18.554 41.362 41.361S22.807 0 0 0m0-86.771c-25.039 0-45.409 20.371-45.409 45.409 0 25.039 20.37 45.41 45.409 45.41 25.039 0 45.409-20.371 45.409-45.41C45.409-66.4 25.039-86.771 0-86.771" style="fill:#45acb8;fill-opacity:1;fill-rule:nonzero;stroke:none" transform="matrix(.35278 0 0 -.35278 16.02 1.428)"/><path d="M0 0c0-20.421-16.555-36.976-36.976-36.976S-73.952-20.421-73.952 0s16.555 36.976 36.976 36.976S0 20.421 0 0" style="fill:#fef7e3;fill-opacity:1;fill-rule:nonzero;stroke:none" transform="matrix(.35278 0 0 -.35278 29.064 16.082)"/><path d="M0 0c-8.433 0-19.395 5.734-27.827 5.734-3.415 0-7.825-2.102-12.144-4.625 6.263-11.522 18.472-19.344 32.509-19.344 16.552 0 30.561 10.877 35.277 25.872-1.709.794-3.383 1.301-4.879 1.301C15.769 8.938 8.433 0 0 0" style="fill:#9fd620;fill-opacity:1;fill-rule:nonzero;stroke:none" transform="matrix(.35278 0 0 -.35278 18.652 22.631)"/><path d="M0 0c7.589 5.325 16.19 6.505 25.129-.747 2.628-2.132 6.015-3.315 9.585-3.872 1.517-.237 2.534 1.506 1.567 2.7-6.778 8.364-17.128 13.715-28.733 13.715-9.965 0-19.003-3.947-25.651-10.357-1.747-1.686-.835-4.68 1.57-5.01C-11.127-4.315-4.625-3.245 0 0" style="fill:#45acb8;fill-opacity:1;fill-rule:nonzero;stroke:none" transform="matrix(.35278 0 0 -.35278 13.357 7.137)"/><path d="M0 0c-.003 2.155-2.159 3.587-4.203 2.904-.699-.233-1.383-.364-2.037-.364-9.782 0-9.95 6.325-17.118 6.325-7.083 0-10.541-13.661-21.503-13.661S-61.726 6.419-69.568 6.419c-.402 0-.828-.06-1.278-.176-1.69-.435-2.884-1.951-3.011-3.692a36.816 36.816 0 0 1 4.372-20.236c4.32 2.523 8.729 4.625 12.144 4.625 8.432 0 19.395-5.734 27.827-5.734 8.433 0 15.769 8.938 22.937 8.938 1.495 0 3.169-.507 4.878-1.302A36.975 36.975 0 0 1 0-.053V0" style="fill:#233344;fill-opacity:1;fill-rule:nonzero;stroke:none" transform="matrix(.35278 0 0 -.35278 29.064 16)"/></svg>